<svg version="1" xmlns="http://www.w3.org/2000/svg" width="1066.667" height="1066.667" viewBox="0 0 800.000000 800.000000"><path d="M378.5 115.6c-1.6.2-8.2 1.1-14.5 2-36.7 4.9-76.4 22.3-106.5 46.8-43.8 35.6-71.9 85.5-80.1 142.1-2.3 15.7-2.3 43.5 0 60.5 7.5 55.4 36.1 106.8 79 141.8 18.8 15.4 41.5 28.4 64.6 37 44 16.4 97.4 17.7 142 3.7 27.2-8.6 52.5-22.2 74.5-40 36-29.2 61.6-68.3 74.4-113.7 5.7-20.3 7.5-34.8 7.5-59.3-.1-19.2-.4-23.9-2.7-36.6-4.1-23.3-8.6-37.1-18.8-58.4-14.1-29.5-32.7-53.6-57.8-74.7-30.1-25.4-67.6-42.7-106.1-48.9-11.9-2-47.6-3.4-55.5-2.3zm38 16.5c12.8 1.1 30.9 4.6 41.5 8 11.7 3.8 22 8 22 9 0 1.3-2.3 2.1-21 7.4-42.1 11.7-82.9 28.6-118.8 49.3-9.6 5.4-11.6 6.2-12.6 5.1-3-3.2-8.9-61.6-6.5-64.5 1.6-1.9 20.7-8 34.2-10.9 19.2-4.1 39.9-5.3 61.2-3.4zm-112.1 27.1c.3 2.4 1 10.8 1.6 18.8.7 8 2 19.7 3 26 2 11.9 1.6 14.6-1.9 13.6-5.3-1.6-54.8-5.6-69.7-5.6-.7 0-1.4-.6-1.4-1.4 0-3.6 17.7-22.3 32.2-33.9 10.4-8.4 31.2-21.7 33.9-21.7 1.3 0 1.9 1 2.3 4.2zm210.1 8.5c26.3 17.5 51.4 46.4 66.5 76.3 4.2 8.4 4.2 8.4 2.4 11.4-7.3 12.9-33.5 49-36.1 50-.8.3-6.2-2.5-12.1-6.3-30.5-19.5-78.4-42.5-113.1-54-24.8-8.3-60-17.9-74.6-20.3-4.3-.7-1.7-3.5 8.5-9.1 38.3-21.4 90.5-40.8 135-50.3 15-3.2 15.5-3.1 23.5 2.3zm-235.7 63.7c15.4 1.4 18.5 2.6 14.2 5.4-6.9 4.6-32.9 24.7-44 34.1-6.9 5.8-22.1 20.1-33.9 31.9-11.8 11.7-21.8 20.9-22.2 20.5-2.3-2.3 3.8-35.4 9.6-52.2 5.7-16.2 14.5-35.4 18.9-41 .9-1.2 4.7-1.3 22.1-.7 11.5.3 27.4 1.2 35.3 2zm76.7 11c30.8 6.5 65.5 17.5 95.8 30.5C481.7 286 534 315 534 318.8c0 3-39.5 42.2-58.5 58.2-20.7 17.3-56.5 43-60 43-1.4 0-20.2-28.3-29.6-44.5-8.5-15-23.6-46.1-30.2-62.6-10.9-27-24.3-72.3-21.8-73.8 1.3-.9 1.9-.8 21.6 3.3zm-36.4 11.8c13.5 53.2 39 110.9 70.2 159.1 4.3 6.5 7.7 12.3 7.7 12.8 0 2.4-44.9-1.6-71-6.2-23.9-4.2-55.8-12.8-79.6-21.5-13.3-4.8-45.2-18.4-49-20.9-2.4-1.5-2.9-3.5-4.4-17-1.2-10.8-2-9.2 15.1-28.1 21.2-23.4 47.8-48 70.8-65.4 17.5-13.2 33.6-24 35.6-23.7 1.6.2 2.4 2.1 4.6 10.9zm275.9 24c.6 2.4 1.8 6.4 2.5 9 4.7 16.3 7.7 59.8 4.1 59.8-.6 0-5.4-3.6-10.6-8.1-5.2-4.4-13.9-11.3-19.2-15.2-5.4-4-9.7-7.9-9.7-8.7-.1-.8 4.3-7.4 9.7-14.6 5.3-7.2 11.8-16.1 14.4-19.8 2.7-3.6 5.4-6.6 6.3-6.6.8 0 1.9 1.7 2.5 4.2zm-38.9 54.5c9.4 6.8 20 15.5 32.7 26.6 12.9 11.3 12.7 10.8 9.2 25-4 15.9-2.5 14.1-16.8 18.7-24.1 7.7-59.9 15.7-87.4 19.5-12.3 1.6-43 4.5-49 4.5-5.1 0-4.9-2 .5-5.5 25.6-16.8 64.3-50.9 90.9-80.2 6.7-7.3 12.4-13.3 12.8-13.3.4 0 3.6 2.1 7.1 4.7zm-334.7 73.2c43.5 17.7 95.2 30.5 144.9 35.6 4.5.5 7 1.2 7.4 2.2.3.7.3 1.6.1 1.9-1.4 1.3-37.9 17.1-48.8 21-26.3 9.6-60.2 19.4-66.9 19.4-5.3 0-25.2-22.9-36.8-42.3-8.9-15.1-19.3-38.4-19.3-43.4 0-2.1 1.8-1.6 19.4 5.6zM584.5 421c1.6 2.6-12.8 27.5-24.6 42.6-4.4 5.6-12.8 14.9-18.7 20.6-15.2 14.8-37 30.8-42.1 30.8-3.7 0-34.7-31.5-55.6-56.5-8.6-10.2-10-12.4-8.9-13.4.5-.5 8.8-1.4 18.4-2 22.1-1.4 50.8-5 72-9.1 16.2-3.1 49.3-11 54.1-12.9 3.2-1.3 4.7-1.3 5.4-.1zm-164.4 34.7c12.9 16.6 30.2 36.3 46.3 52.8 8 8.2 14.6 15.3 14.6 15.6 0 3.3-33 13.7-52.8 16.5-15.6 2.3-47.6 2.3-62.2 0-12.4-1.9-29.5-6.4-41-10.6-18.3-6.7-50.5-25.3-49.8-28.7.2-1.2 4-2.7 13.8-5.4 35.7-9.7 81.3-28.3 112.5-45.8 5-2.8 9.3-5.1 9.6-5.1.3 0 4.4 4.8 9 10.7zM406 631v37h7v-16.5c0-18.6.6-21.2 6.3-26.2 5.8-5.1 16.4-5.7 22.1-1.2 5.1 4 5.6 6.3 5.6 25.9v18h7.2l-.4-19.8c-.3-18.6-.4-19.9-2.6-23.4-3.1-5.1-7.1-7.7-13.6-9-7.6-1.6-15 .1-20.5 4.8l-4.1 3.6V594h-7v37zM544 631v37h7v-16.5c0-18.6.6-21.2 6.3-26.2 5.8-5.1 16.4-5.7 22.1-1.2 5.1 4 5.6 6.3 5.6 25.9v18h7.2l-.4-19.8c-.3-18.6-.4-19.9-2.6-23.4-3.1-5.1-7.1-7.7-13.6-9-7.6-1.6-15 .1-20.5 4.8l-4.1 3.6V594h-7v37zM71 641.5V668h7v-16.8c0-15.7.2-17.2 2.3-21.2 6.1-11.5 22.9-12.1 28.5-1 2 4.1 2.2 5.8 2.2 21.7V668h7v-16.8c0-15.4.2-17.1 2.3-21.2 5.4-10.9 22.2-12 28.2-1.9 1.8 3 2 5.6 2.3 21.6l.4 18.3h7.1l-.5-18.8c-.4-17-.7-19.3-2.7-23.5-5.9-12.2-25.5-14.2-35.7-3.7l-3.8 3.9-1.9-3c-5.8-9-22.9-10.2-31.8-2.1l-3.9 3.4v-4.6c0-4.6 0-4.6-3.5-4.6H71v26.5zM190.2 616.5c-11.3 3.5-18.2 13-18.2 24.9 0 10.9 4.8 19 13.9 23.8 4.3 2.3 6.6 2.8 12 2.8 11.5-.1 18.6-4 23.5-12.9 11.7-21.7-7.8-45.9-31.2-38.6zm15.6 6c12.2 5.2 16.1 21.1 8 32.8-5.9 8.4-22.8 9-30 1-4.4-4.8-6.2-16.4-3.7-23 3.6-9.5 16.1-14.7 25.7-10.8zM240 641.5V668h7v-16.5c0-18.6.6-21.2 6.3-26.2 5.8-5.1 16.4-5.7 22.1-1.2 5.1 4 5.6 6.3 5.6 25.9v18h7.2l-.4-19.9-.3-19.9-3-4.3c-4.3-6-9.4-8.4-18-8.4-7.5.1-11.8 1.6-16.7 6.3l-2.8 2.6V615h-7v26.5zM318.1 616.1c-2.3.4-6.3 2-8.8 3.4-4.2 2.5-4.4 2.8-3 4.8.8 1.2 1.7 2.1 2.1 1.9 10.7-5.3 17.4-6.3 24.1-3.7 5 1.9 7 4.7 8.1 11.4l.7 4.1h-11.4c-14.1.1-20.3 1.9-23.6 6.9-3 4.4-3.1 11.3-.3 15.9 5.5 8.9 23.6 9.7 32.3 1.5l2.7-2.7v4.2c0 4 .1 4.2 3 4.2h3v-19.4c0-11.3-.4-20.6-1.1-22.3-3.3-8.9-14.2-12.9-27.8-10.2zm22.9 31.3c0 8.6-7.3 15.1-17 15-10 0-15.4-5.5-13-13 1.7-5 5.6-6.4 18.8-6.4H341v4.4zM367 641.5V668h7v-16.3c0-13.6.3-16.8 1.9-20.3 2.3-5.2 7-8.5 12.7-9.2 4.2-.4 4.4-.6 4.4-3.8 0-3.9-.5-4-7.7-1.9-3.4 1-6.1 2.7-8.2 5l-3.1 3.6V615h-7v26.5zM500.9 616.5c-6.9 2.2-10.9 7.2-10.9 13.4 0 8.5 4.1 11.8 18.2 14.6 13.6 2.7 18.3 7 14.4 13.1-2.3 3.4-5.4 4.4-13.9 4.4-5.6 0-8.4-.6-12.6-2.5-3-1.4-5.5-2.4-5.6-2.3-.1.2-.7 1.3-1.4 2.5-1 1.9-.8 2.4 1.3 3.8 6.3 4.1 20.4 5.8 28.9 3.4 7.9-2.2 12.2-9.1 10.6-16.9-1.1-5.2-5-7.7-15.9-10.1-5.2-1.1-11-2.7-12.8-3.5-6.5-2.8-6.1-10.1.8-13.7 4.4-2.3 14.2-1.8 19.9 1l3.9 2 1.1-2.4c1.7-3.6 1.5-4-3.6-5.8-6.9-2.3-16.9-2.8-22.4-1zM625.2 616.5c-11.3 3.5-18.2 13-18.2 24.9 0 10.9 4.8 19 13.9 23.8 4.3 2.3 6.6 2.8 12 2.8 11.5-.1 18.6-4 23.5-12.9 11.7-21.7-7.8-45.9-31.2-38.6zm15.6 6c12.2 5.2 16.1 21.1 8 32.8-5.9 8.4-22.8 9-30 1-4.4-4.8-6.2-16.4-3.7-23 3.6-9.5 16.1-14.7 25.7-10.8zM675 651v36h7v-28.4l3.3 3.2c4.5 4.3 9.6 6.2 16.9 6.2 12 0 21.2-6.8 24.5-17.9 2.2-7.6 1.3-15.7-2.4-22.4-7.6-13.4-27.8-16.7-38.6-6.2l-3.7 3.6V615h-7v36zm34.5-28.1c8 3.6 12 11.1 11.3 21.1-.8 11.1-8.2 18-19.3 18-11.1 0-18.5-6.9-19.3-18-.2-3.2.1-7.4.8-9.4 2.6-7.8 10.4-13.6 18.5-13.6 2.2 0 5.8.9 8 1.9zM471.2 659.2c-.7.7-1.2 2.4-1.2 3.8s.5 3.1 1.2 3.8c2.8 2.8 8.8.2 8.8-3.8s-6-6.6-8.8-3.8z"/></svg>